<svg xmlns="http://www.w3.org/2000/svg" viewBox="0 0 96 96" style="enable-background:new 0 0 96 96" xml:space="preserve"><path d="M394.6 889.9c-30.2-83.7-67.4-99.9-158-65.1-60.4 20.9-79 20.9-109.2-11.6-27.9-27.9-32.5-46.5-11.6-83.7 46.5-86 30.2-144.1-44.2-169.6-51.1-18.6-69.7-39.5-69.7-81.3 0-44.2 18.6-65.1 69.7-81.3 53.4-20.9 69.7-39.5 69.7-86 0-34.9-11.6-79-23.2-97.6-13.9-23.2-9.3-46.5 16.3-74.4 32.5-37.2 41.8-37.2 102.2-7 81.3 44.2 127.8 25.6 158-60.4 30.2-90.6 132.5-97.6 155.7-9.3 20.9 81.3 83.7 111.5 160.3 76.7 48.8-20.9 67.4-20.9 97.6 11.6 32.5 30.2 32.5 46.5 7 106.9-34.9 83.7-9.3 127.8 81.3 151 88.3 23.2 79 118.5-11.6 151-86 27.9-106.9 79-72 158 23.2 48.8 20.9 67.4-7 95.3-27.9 30.2-46.5 30.2-95.3 9.3-76.7-34.9-144.1-2.3-165 76.7-20.8 86-120.8 79.1-151-9.2zm185.9-318.4c27.9-34.9 48.8-74.4 48.8-90.6 0-53.4-95.3-151-148.7-151-88.3 0-153.4 65.1-153.4 151 0 144 165 202.1 253.3 90.6z" style="fill:#fff" transform="matrix(.1 0 0 -.1 0 96)"/></svg>