<svg xmlns="http://www.w3.org/2000/svg" viewBox="0 0 150 150" style="enable-background:new 0 0 150 150" xml:space="preserve"><path d="M125.5 4866.2c-15.2-7.6-23.1-26-18-42 2-6.1 24.8-30.1 117.8-123.3L341 4585h-10.9c-16 0-32.8-3.5-43.4-9.4-12.3-6.6-25.8-21.3-32.2-35.2l-5.3-11.1v-318.6l6.1-12.7c7.6-16.2 19.7-28.3 36-36l12.7-6.1 91.5-.6 91.5-.6L661.9 4015c96.1-77 177.8-141.1 181.5-142.7 8.6-3.5 17-3.5 25.8.2 9.4 3.9 13.9 8 18.4 17 3.5 6.6 3.7 12.3 3.7 74.8 0 37.1.6 67.4 1.4 67.4s37.5-36 81.7-79.9c78.8-78.6 80.3-80.1 89.3-81.3 17-2.5 31.5 4.7 38.5 19 4.9 10.2 5.3 18.6 1.2 28.5-4.3 10.2-936.6 943.1-947.8 948.4-10.6 5.1-19.8 4.9-30.1-.2zm717.5 1.4c-5.3-2.3-309.5-243.3-320.7-254l-4.5-4.1 186.6-186.6L891 4236.3v303.5c0 293.9-.2 303.7-3.7 310.7-4.5 9-9 13.1-18.4 17-8.5 3.4-17.8 3.6-25.9.1z" transform="matrix(.1 0 0 -.1 0 512)" style="fill:#fff"/></svg>