<svg version="1.1" id="Layer_1" xmlns="http://www.w3.org/2000/svg" x="0" y="0" viewBox="0 0 150 150" style="enable-background:new 0 0 150 150" xml:space="preserve"><style>.st0{fill:#fff}</style><path class="st0" d="M804.1 4833.6c-2-.6-78.2-60.6-169.5-133.8l-166-132.6-86.4-.6c-85.5-.6-86.8-.6-95.6-5.1-14.5-7-24.4-17-31.5-31.3l-6.5-13.1v-299.2l6.5-13.1c7-14.3 17-24.2 31.5-31.3 8.8-4.5 10.2-4.5 95.6-5.1l86.4-.6 165.8-132.6c91.3-72.9 168-133.2 170.7-133.8 14.7-3.9 30.5 2.3 37.9 15.1l4.9 8.4v885l-4.9 8.4c-7.5 13-23.7 19.3-38.9 15.3zm274.3-127.6c-13.9-4.1-23.3-17-23.3-32.3 0-11.7 1.4-14.1 20.3-35.2 30.1-33.4 48.3-60 65.9-96 45.6-93.5 52.8-200.6 20.1-299.8-18.2-55.1-44.4-99.5-86-145.9-19-21.1-20.3-23.5-20.3-35.2 0-22.5 19.8-37.9 41.5-32.3 6.6 1.8 11.7 5.7 23.5 17.6 56.9 58.5 100.1 139.6 117.9 221.9 32.3 149.4-10.6 304.7-115.6 417.3-17.8 19.3-29.1 24.4-44 19.9z" transform="matrix(.1 0 0 -.1 0 512)"/><path class="st0" d="M984.7 4611.5c-15.1-4.9-23.5-16.2-23.5-31.3 0-12.1 3.1-17.8 19.6-35.8 44-48.5 66.9-108.7 66.9-176.8 0-67.5-22.5-127.5-66.1-175.8-17.4-19.6-20.3-24.6-20.3-36.4 0-15.8 9.4-28.2 24.4-32.1 9.4-2.3 19.9-.4 28 5.3 8.2 6.1 32.9 35.2 46 54.8 12.7 18.6 29.5 52.4 37.2 73.7 14.1 39.7 20.9 94.4 17.2 136.5-6.6 74.7-32.3 135.9-80.2 192-21 24.7-33.3 31.2-49.2 25.9z" transform="matrix(.1 0 0 -.1 0 512)"/></svg>