<?xml version="1.0" encoding="utf-8"?>
<!-- Generator: Adobe Illustrator 26.0.1, SVG Export Plug-In . SVG Version: 6.00 Build 0)  -->
<svg version="1.1" id="Flat" xmlns="http://www.w3.org/2000/svg" xmlns:xlink="http://www.w3.org/1999/xlink" x="0px" y="0px"
	 viewBox="0 0 297 200" style="enable-background:new 0 0 297 200;" xml:space="preserve">
<style type="text/css">
	.st0{fill:#FFFFFF;}
</style>
<path class="st0" d="M180.5,100c0,17.7-14.3,32-32,32s-32-14.3-32-32s14.3-32,32-32C166.2,68,180.5,82.3,180.5,100z M48.5,68
	c-17.7,0-32,14.3-32,32s14.3,32,32,32s32-14.3,32-32C80.5,82.3,66.2,68,48.5,68z M248.5,68c-17.7,0-32,14.3-32,32s14.3,32,32,32
	s32-14.3,32-32C280.5,82.3,266.2,68,248.5,68z"/>
</svg>
