<?xml version="1.0" encoding="utf-8"?>
<!-- Generator: Adobe Illustrator 26.0.1, SVG Export Plug-In . SVG Version: 6.00 Build 0)  -->
<svg version="1.1" id="Layer_1" xmlns="http://www.w3.org/2000/svg" xmlns:xlink="http://www.w3.org/1999/xlink" x="0px" y="0px"
	 viewBox="0 0 96 96" style="enable-background:new 0 0 96 96;" xml:space="preserve">
<style type="text/css">
	.st0{fill:#FFFFFF;}
</style>
<g transform="translate(0.000000,96.000000) scale(0.100000,-0.100000)">
	<path class="st0" d="M413.2,893.9c-29.8-89.4-85.1-114.9-163.9-76.6c-55.3,29.8-63.9,29.8-97.9-6.4c-31.9-36.2-31.9-46.8-2.1-104.3
		c27.7-53.2,27.7-68.1,2.1-104.3c-17-25.5-55.3-51.1-85.1-57.5c-76.6-19.2-74.5-112.8,6.4-142.6c93.7-34.1,114.9-76.6,76.6-153.2
		c-31.9-59.6-31.9-66,8.5-104.3c40.4-40.4,44.7-40.4,95.8-6.4c68.1,44.7,129.8,17,159.6-74.5C430.3,17,449.4,0,489.9,0
		s57.5,17,76.6,72.4c27.7,89.4,70.2,106.4,146.9,66c55.3-27.7,63.9-27.7,97.9,10.6c31.9,36.2,34.1,51.1,12.8,97.9
		c-34.1,76.6-12.8,127.7,61.7,155.4c49,17,63.9,34.1,63.9,76.6s-14.9,59.6-63.9,76.6c-74.5,27.7-95.8,78.8-61.7,155.4
		c21.3,46.8,19.2,61.7-12.8,97.9c-34.1,38.3-42.6,38.3-97.9,10.6c-76.6-40.4-119.2-23.4-157.5,66
		C517.5,981.2,445.2,985.5,413.2,893.9z M592,581.1c78.8-70.2,38.3-208.6-74.5-246.9c-57.5-21.3-157.5,38.3-172.4,102.2
		c-12.8,53.2,14.9,136.2,59.6,163.9C447.3,627.9,551.6,617.2,592,581.1z"/>
</g>
</svg>
