<?xml version="1.0" encoding="utf-8"?>
<!-- Generator: Adobe Illustrator 26.0.1, SVG Export Plug-In . SVG Version: 6.00 Build 0)  -->
<svg version="1.1" id="Layer_1" xmlns="http://www.w3.org/2000/svg" xmlns:xlink="http://www.w3.org/1999/xlink" x="0px" y="0px"
	 viewBox="0 0 96 96" style="enable-background:new 0 0 96 96;" xml:space="preserve">
<style type="text/css">
	.st0{fill:#FFFFFF;}
</style>
<g transform="translate(0.000000,96.000000) scale(0.100000,-0.100000)">
	<path class="st0" d="M394.6,889.9c-30.2-83.7-67.4-99.9-158-65.1c-60.4,20.9-79,20.9-109.2-11.6c-27.9-27.9-32.5-46.5-11.6-83.7
		c46.5-86,30.2-144.1-44.2-169.6c-51.1-18.6-69.7-39.5-69.7-81.3c0-44.2,18.6-65.1,69.7-81.3c53.4-20.9,69.7-39.5,69.7-86
		c0-34.9-11.6-79-23.2-97.6c-13.9-23.2-9.3-46.5,16.3-74.4c32.5-37.2,41.8-37.2,102.2-7c81.3,44.2,127.8,25.6,158-60.4
		c30.2-90.6,132.5-97.6,155.7-9.3c20.9,81.3,83.7,111.5,160.3,76.7c48.8-20.9,67.4-20.9,97.6,11.6c32.5,30.2,32.5,46.5,7,106.9
		c-34.9,83.7-9.3,127.8,81.3,151c88.3,23.2,79,118.5-11.6,151c-86,27.9-106.9,79-72,158c23.2,48.8,20.9,67.4-7,95.3
		c-27.9,30.2-46.5,30.2-95.3,9.3c-76.7-34.9-144.1-2.3-165,76.7C524.8,985.1,424.8,978.2,394.6,889.9z M580.5,571.5
		c27.9-34.9,48.8-74.4,48.8-90.6c0-53.4-95.3-151-148.7-151c-88.3,0-153.4,65.1-153.4,151C327.2,624.9,492.2,683,580.5,571.5z"/>
</g>
</svg>
