<?xml version="1.0" encoding="utf-8"?>
<!-- Generator: Adobe Illustrator 26.0.1, SVG Export Plug-In . SVG Version: 6.00 Build 0)  -->
<svg version="1.1" id="Layer_1" xmlns="http://www.w3.org/2000/svg" xmlns:xlink="http://www.w3.org/1999/xlink" x="0px" y="0px"
	 viewBox="0 0 150 150" style="enable-background:new 0 0 150 150;" xml:space="preserve">
<style type="text/css">
	.st0{fill:#FFFFFF;}
</style>
<g transform="translate(0.000000,512.000000) scale(0.100000,-0.100000)">
	<path class="st0" d="M125.5,4866.2c-15.2-7.6-23.1-26-18-42c2-6.1,24.8-30.1,117.8-123.3L341,4585h-10.9c-16,0-32.8-3.5-43.4-9.4
		c-12.3-6.6-25.8-21.3-32.2-35.2l-5.3-11.1V4370v-159.3l6.1-12.7c7.6-16.2,19.7-28.3,36-36l12.7-6.1l91.5-0.6l91.5-0.6l174.9-139.7
		c96.1-77,177.8-141.1,181.5-142.7c8.6-3.5,17-3.5,25.8,0.2c9.4,3.9,13.9,8,18.4,17c3.5,6.6,3.7,12.3,3.7,74.8
		c0,37.1,0.6,67.4,1.4,67.4s37.5-36,81.7-79.9c78.8-78.6,80.3-80.1,89.3-81.3c17-2.5,31.5,4.7,38.5,19c4.9,10.2,5.3,18.6,1.2,28.5
		c-4.3,10.2-936.6,943.1-947.8,948.4C145,4871.5,135.8,4871.3,125.5,4866.2z"/>
	<path class="st0" d="M843,4867.6c-5.3-2.3-309.5-243.3-320.7-254l-4.5-4.1l186.6-186.6l186.6-186.6v303.5
		c0,293.9-0.2,303.7-3.7,310.7c-4.5,9-9,13.1-18.4,17C860.4,4870.9,851.1,4871.1,843,4867.6z"/>
</g>
</svg>
