<?xml version="1.0" encoding="utf-8"?>
<!-- Generator: Adobe Illustrator 26.0.1, SVG Export Plug-In . SVG Version: 6.00 Build 0)  -->
<svg version="1.1" id="Layer_1" xmlns="http://www.w3.org/2000/svg" xmlns:xlink="http://www.w3.org/1999/xlink" x="0px" y="0px"
	 viewBox="0 0 150 150" style="enable-background:new 0 0 150 150;" xml:space="preserve">
<style type="text/css">
	.st0{fill:#FFFFFF;}
</style>
<g transform="translate(0.000000,512.000000) scale(0.100000,-0.100000)">
	<path class="st0" d="M804.1,4833.6c-2-0.6-78.2-60.6-169.5-133.8l-166-132.6l-86.4-0.6c-85.5-0.6-86.8-0.6-95.6-5.1
		c-14.5-7-24.4-17-31.5-31.3l-6.5-13.1v-149.6v-149.6l6.5-13.1c7-14.3,17-24.2,31.5-31.3c8.8-4.5,10.2-4.5,95.6-5.1l86.4-0.6
		l165.8-132.6c91.3-72.9,168-133.2,170.7-133.8c14.7-3.9,30.5,2.3,37.9,15.1l4.9,8.4v442.5v442.5l-4.9,8.4
		C835.5,4831.3,819.3,4837.6,804.1,4833.6z"/>
	<path class="st0" d="M1078.4,4706c-13.9-4.1-23.3-17-23.3-32.3c0-11.7,1.4-14.1,20.3-35.2c30.1-33.4,48.3-60,65.9-96
		c45.6-93.5,52.8-200.6,20.1-299.8c-18.2-55.1-44.4-99.5-86-145.9c-19-21.1-20.3-23.5-20.3-35.2c0-22.5,19.8-37.9,41.5-32.3
		c6.6,1.8,11.7,5.7,23.5,17.6c56.9,58.5,100.1,139.6,117.9,221.9c32.3,149.4-10.6,304.7-115.6,417.3
		C1104.6,4705.4,1093.3,4710.5,1078.4,4706z"/>
	<path class="st0" d="M984.7,4611.5c-15.1-4.9-23.5-16.2-23.5-31.3c0-12.1,3.1-17.8,19.6-35.8c44-48.5,66.9-108.7,66.9-176.8
		c0-67.5-22.5-127.5-66.1-175.8c-17.4-19.6-20.3-24.6-20.3-36.4c0-15.8,9.4-28.2,24.4-32.1c9.4-2.3,19.9-0.4,28,5.3
		c8.2,6.1,32.9,35.2,46,54.8c12.7,18.6,29.5,52.4,37.2,73.7c14.1,39.7,20.9,94.4,17.2,136.5c-6.6,74.7-32.3,135.9-80.2,192
		C1012.9,4610.3,1000.6,4616.8,984.7,4611.5z"/>
</g>
</svg>
